<svg id="visual" viewBox="0 0 900 600" width="900" height="600" xmlns="http://www.w3.org/2000/svg" xmlns:xlink="http://www.w3.org/1999/xlink" version="1.1"><rect x="0" y="0" width="900" height="600" fill="#1d5706"></rect><path d="M0 346L129 346L129 283L257 283L257 265L386 265L386 347L514 347L514 281L643 281L643 289L771 289L771 294L900 294L900 295L900 601L900 601L771 601L771 601L643 601L643 601L514 601L514 601L386 601L386 601L257 601L257 601L129 601L129 601L0 601Z" fill="#40ff00"></path><path d="M0 455L129 455L129 403L257 403L257 401L386 401L386 370L514 370L514 444L643 444L643 420L771 420L771 386L900 386L900 382L900 601L900 601L771 601L771 601L643 601L643 601L514 601L514 601L386 601L386 601L257 601L257 601L129 601L129 601L0 601Z" fill="#30c600"></path><path d="M0 483L129 483L129 532L257 532L257 495L386 495L386 541L514 541L514 474L643 474L643 450L771 450L771 474L900 474L900 464L900 601L900 601L771 601L771 601L643 601L643 601L514 601L514 601L386 601L386 601L257 601L257 601L129 601L129 601L0 601Z" fill="#208f00"></path></svg>