<svg id="visual" viewBox="0 0 900 600" width="900" height="600" xmlns="http://www.w3.org/2000/svg" xmlns:xlink="http://www.w3.org/1999/xlink" version="1.1"><path d="M0 187L13.7 179C27.3 171 54.7 155 82 142C109.3 129 136.7 119 163.8 114C191 109 218 109 245.2 128C272.3 147 299.7 185 327 189C354.3 193 381.7 163 409 139C436.3 115 463.7 97 491 99C518.3 101 545.7 123 573 149C600.3 175 627.7 205 654.8 211C682 217 709 199 736.2 194C763.3 189 790.7 197 818 197C845.3 197 872.7 189 886.3 185L900 181L900 0L886.3 0C872.7 0 845.3 0 818 0C790.7 0 763.3 0 736.2 0C709 0 682 0 654.8 0C627.7 0 600.3 0 573 0C545.7 0 518.3 0 491 0C463.7 0 436.3 0 409 0C381.7 0 354.3 0 327 0C299.7 0 272.3 0 245.2 0C218 0 191 0 163.8 0C136.7 0 109.3 0 82 0C54.7 0 27.3 0 13.7 0L0 0Z" fill="#88ff73"></path><path d="M0 271L13.7 256C27.3 241 54.7 211 82 192C109.3 173 136.7 165 163.8 167C191 169 218 181 245.2 199C272.3 217 299.7 241 327 249C354.3 257 381.7 249 409 236C436.3 223 463.7 205 491 197C518.3 189 545.7 191 573 208C600.3 225 627.7 257 654.8 275C682 293 709 297 736.2 304C763.3 311 790.7 321 818 315C845.3 309 872.7 287 886.3 276L900 265L900 179L886.3 183C872.7 187 845.3 195 818 195C790.7 195 763.3 187 736.2 192C709 197 682 215 654.8 209C627.7 203 600.3 173 573 147C545.7 121 518.3 99 491 97C463.7 95 436.3 113 409 137C381.7 161 354.3 191 327 187C299.7 183 272.3 145 245.2 126C218 107 191 107 163.8 112C136.7 117 109.3 127 82 140C54.7 153 27.3 169 13.7 177L0 185Z" fill="#65ff4d"></path><path d="M0 325L13.7 328C27.3 331 54.7 337 82 327C109.3 317 136.7 291 163.8 276C191 261 218 257 245.2 272C272.3 287 299.7 321 327 341C354.3 361 381.7 367 409 360C436.3 353 463.7 333 491 322C518.3 311 545.7 309 573 319C600.3 329 627.7 351 654.8 362C682 373 709 373 736.2 375C763.3 377 790.7 381 818 391C845.3 401 872.7 417 886.3 425L900 433L900 263L886.3 274C872.7 285 845.3 307 818 313C790.7 319 763.3 309 736.2 302C709 295 682 291 654.8 273C627.7 255 600.3 223 573 206C545.7 189 518.3 187 491 195C463.7 203 436.3 221 409 234C381.7 247 354.3 255 327 247C299.7 239 272.3 215 245.2 197C218 179 191 167 163.8 165C136.7 163 109.3 171 82 190C54.7 209 27.3 239 13.7 254L0 269Z" fill="#2cff00"></path><path d="M0 505L13.7 514C27.3 523 54.7 541 82 540C109.3 539 136.7 519 163.8 515C191 511 218 523 245.2 533C272.3 543 299.7 551 327 552C354.3 553 381.7 547 409 537C436.3 527 463.7 513 491 511C518.3 509 545.7 519 573 522C600.3 525 627.7 521 654.8 517C682 513 709 509 736.2 515C763.3 521 790.7 537 818 546C845.3 555 872.7 557 886.3 558L900 559L900 431L886.3 423C872.7 415 845.3 399 818 389C790.7 379 763.3 375 736.2 373C709 371 682 371 654.8 360C627.7 349 600.3 327 573 317C545.7 307 518.3 309 491 320C463.7 331 436.3 351 409 358C381.7 365 354.3 359 327 339C299.7 319 272.3 285 245.2 270C218 255 191 259 163.8 274C136.7 289 109.3 315 82 325C54.7 335 27.3 329 13.7 326L0 323Z" fill="#27dc00"></path><path d="M0 601L13.7 601C27.3 601 54.7 601 82 601C109.3 601 136.7 601 163.8 601C191 601 218 601 245.2 601C272.3 601 299.7 601 327 601C354.3 601 381.7 601 409 601C436.3 601 463.7 601 491 601C518.3 601 545.7 601 573 601C600.3 601 627.7 601 654.8 601C682 601 709 601 736.2 601C763.3 601 790.7 601 818 601C845.3 601 872.7 601 886.3 601L900 601L900 557L886.3 556C872.7 555 845.3 553 818 544C790.7 535 763.3 519 736.2 513C709 507 682 511 654.8 515C627.7 519 600.3 523 573 520C545.7 517 518.3 507 491 509C463.7 511 436.3 525 409 535C381.7 545 354.3 551 327 550C299.7 549 272.3 541 245.2 531C218 521 191 509 163.8 513C136.7 517 109.3 537 82 538C54.7 539 27.3 521 13.7 512L0 503Z" fill="#22ba01"></path></svg>