<svg xmlns="http://www.w3.org/2000/svg" xmlns:xlink="http://www.w3.org/1999/xlink" width="2000" zoomAndPan="magnify" viewBox="0 0 1500 1499.999933" height="2000" preserveAspectRatio="xMidYMid meet" version="1.0"><defs><g/><clipPath id="ec18192f22"><path d="M 896.269531 742 L 1124 742 L 1124 898.640625 L 896.269531 898.640625 Z M 896.269531 742 " clip-rule="nonzero"/></clipPath><clipPath id="218303fd48"><path d="M 1123 742 L 1350 742 L 1350 898.640625 L 1123 898.640625 Z M 1123 742 " clip-rule="nonzero"/></clipPath><clipPath id="2f44b27063"><path d="M 1128 648.890625 L 1303 648.890625 L 1303 742 L 1128 742 Z M 1128 648.890625 " clip-rule="nonzero"/></clipPath><clipPath id="40df749a01"><path d="M 943 648.890625 L 1118 648.890625 L 1118 742 L 943 742 Z M 943 648.890625 " clip-rule="nonzero"/></clipPath><clipPath id="b9cd152565"><rect x="0" width="733" y="0" height="427"/></clipPath></defs><path fill="#1800ad" d="M 1342.484375 725.5625 C 1344.820312 717.210938 1349.953125 700.550781 1349.953125 700.550781 C 1155.320312 684.140625 1123.132812 772.46875 1123.132812 772.46875 C 1168.296875 714.535156 1308.515625 722.667969 1342.484375 725.5625 " fill-opacity="1" fill-rule="nonzero"/><path fill="#2563eb" d="M 904.527344 722.191406 C 902.320312 713.804688 897.441406 697.0625 897.441406 697.0625 C 1092.304688 683.65625 1123.132812 772.46875 1123.132812 772.46875 C 1078.863281 713.84375 938.539062 719.816406 904.527344 722.191406 " fill-opacity="1" fill-rule="nonzero"/><g clip-path="url(#ec18192f22)"><path fill="#2563eb" d="M 896.308594 745.382812 L 941.601562 855.265625 C 1014.351562 864.085938 1080.355469 843.566406 1123.132812 898.4375 L 1123.132812 791.578125 C 1071.597656 725.472656 896.308594 745.382812 896.308594 745.382812 " fill-opacity="1" fill-rule="nonzero"/></g><g clip-path="url(#218303fd48)"><path fill="#1800ad" d="M 1349.953125 745.382812 L 1304.664062 855.265625 C 1231.910156 864.085938 1165.90625 843.566406 1123.132812 898.4375 L 1123.132812 791.578125 C 1174.664062 725.472656 1349.953125 745.382812 1349.953125 745.382812 " fill-opacity="1" fill-rule="nonzero"/></g><g clip-path="url(#2f44b27063)"><path fill="#1800ad" d="M 1302.921875 648.898438 L 1296.714844 675.070312 C 1239.109375 680.730469 1157.125 696.726562 1128.582031 741.835938 C 1128.582031 741.835938 1147.796875 665.28125 1302.921875 648.898438 " fill-opacity="1" fill-rule="nonzero"/></g><g clip-path="url(#40df749a01)"><path fill="#2563eb" d="M 943.339844 648.898438 L 949.550781 675.070312 C 1007.15625 680.730469 1089.140625 696.726562 1117.683594 741.835938 C 1117.683594 741.835938 1098.46875 665.28125 943.339844 648.898438 " fill-opacity="1" fill-rule="nonzero"/></g><g transform="matrix(1, 0, 0, 1, 138, 536)"><g clip-path="url(#b9cd152565)"><g fill="#1800ad" fill-opacity="1"><g transform="translate(1.093053, 346.687878)"><g><path d="M 18.1875 -16.15625 L 18.1875 -236.0625 C 18.1875 -240.78125 20.597656 -244.597656 25.421875 -247.515625 C 30.253906 -250.429688 36.484375 -251.890625 44.109375 -251.890625 C 51.523438 -251.890625 57.753906 -250.429688 62.796875 -247.515625 C 67.847656 -244.597656 70.375 -240.78125 70.375 -236.0625 L 70.375 -16.15625 C 70.375 -12.125 67.789062 -8.421875 62.625 -5.046875 C 57.46875 -1.679688 51.296875 0 44.109375 0 C 36.703125 0 30.53125 -1.625 25.59375 -4.875 C 20.65625 -8.132812 18.1875 -11.894531 18.1875 -16.15625 Z M 18.1875 -16.15625 "/></g></g></g><g fill="#1800ad" fill-opacity="1"><g transform="translate(89.659107, 346.687878)"><g><path d="M 9.09375 -68.03125 L 9.09375 -92.609375 C 9.09375 -111.691406 16.664062 -128.078125 31.8125 -141.765625 C 46.96875 -155.460938 65.210938 -162.3125 86.546875 -162.3125 C 106.523438 -162.3125 123.585938 -156.304688 137.734375 -144.296875 C 151.878906 -132.285156 158.953125 -116.960938 158.953125 -98.328125 C 158.953125 -91.148438 158.050781 -85.3125 156.25 -80.8125 C 154.457031 -76.320312 151.765625 -73.179688 148.171875 -71.390625 C 144.578125 -69.597656 141.265625 -68.421875 138.234375 -67.859375 C 135.203125 -67.296875 131.21875 -67.015625 126.28125 -67.015625 L 61.28125 -67.015625 L 61.28125 -65 C 61.28125 -56.6875 64.421875 -50.003906 70.703125 -44.953125 C 76.992188 -39.898438 85.304688 -37.375 95.640625 -37.375 C 103.492188 -37.375 111.742188 -39.453125 120.390625 -43.609375 C 129.035156 -47.765625 134.816406 -49.84375 137.734375 -49.84375 C 143.347656 -49.84375 147.945312 -47.203125 151.53125 -41.921875 C 155.125 -36.648438 156.921875 -31.65625 156.921875 -26.9375 C 156.921875 -19.976562 150.914062 -13.1875 138.90625 -6.5625 C 126.894531 0.0625 112.023438 3.375 94.296875 3.375 C 69.148438 3.375 48.660156 -3.191406 32.828125 -16.328125 C 17.003906 -29.460938 9.09375 -46.695312 9.09375 -68.03125 Z M 61.28125 -96.3125 L 103.046875 -96.3125 C 107.765625 -96.3125 110.125 -99.003906 110.125 -104.390625 C 110.125 -110.679688 107.707031 -115.617188 102.875 -119.203125 C 98.050781 -122.796875 92.269531 -124.59375 85.53125 -124.59375 C 79.019531 -124.59375 73.347656 -122.796875 68.515625 -119.203125 C 63.691406 -115.617188 61.28125 -110.679688 61.28125 -104.390625 Z M 61.28125 -96.3125 "/></g></g></g><g fill="#1800ad" fill-opacity="1"><g transform="translate(256.688613, 346.687878)"><g><path d="M 15.15625 -16.15625 L 15.15625 -144.46875 C 15.15625 -149.175781 17.566406 -152.988281 22.390625 -155.90625 C 27.222656 -158.832031 33.34375 -160.296875 40.75 -160.296875 C 47.257812 -160.296875 52.757812 -158.832031 57.25 -155.90625 C 61.738281 -152.988281 63.984375 -149.175781 63.984375 -144.46875 L 63.984375 -132 C 67.578125 -140.082031 73.132812 -147.15625 80.65625 -153.21875 C 88.175781 -159.28125 95.976562 -162.3125 104.0625 -162.3125 L 113.828125 -162.3125 C 118.765625 -162.3125 123.082031 -160.066406 126.78125 -155.578125 C 130.488281 -151.085938 132.34375 -145.8125 132.34375 -139.75 C 132.34375 -133.46875 130.488281 -128.082031 126.78125 -123.59375 C 123.082031 -119.101562 118.765625 -116.859375 113.828125 -116.859375 L 104.0625 -116.859375 C 94.40625 -116.859375 85.867188 -112.195312 78.453125 -102.875 C 71.046875 -93.5625 67.34375 -81.492188 67.34375 -66.671875 L 67.34375 -16.15625 C 67.34375 -12.125 64.703125 -8.421875 59.421875 -5.046875 C 54.148438 -1.679688 47.921875 0 40.734375 0 C 33.554688 0 27.5 -1.625 22.5625 -4.875 C 17.625 -8.132812 15.15625 -11.894531 15.15625 -16.15625 Z M 15.15625 -16.15625 "/></g></g></g><g fill="#1800ad" fill-opacity="1"><g transform="translate(389.369336, 346.687878)"><g><path d="M 15.15625 -16.15625 L 15.15625 -144.46875 C 15.15625 -149.175781 17.566406 -152.988281 22.390625 -155.90625 C 27.222656 -158.832031 33.453125 -160.296875 41.078125 -160.296875 C 47.367188 -160.296875 52.757812 -158.832031 57.25 -155.90625 C 61.738281 -152.988281 63.984375 -149.175781 63.984375 -144.46875 L 63.984375 -136.71875 C 67.578125 -143.90625 73.359375 -149.96875 81.328125 -154.90625 C 89.296875 -159.84375 98.554688 -162.3125 109.109375 -162.3125 C 124.597656 -162.3125 138.007812 -155.351562 149.34375 -141.4375 C 160.6875 -127.519531 166.359375 -110.90625 166.359375 -91.59375 L 166.359375 -16.15625 C 166.359375 -11 163.773438 -7.015625 158.609375 -4.203125 C 153.441406 -1.398438 147.269531 0 140.09375 0 C 133.351562 0 127.34375 -1.457031 122.0625 -4.375 C 116.789062 -7.289062 114.15625 -11.21875 114.15625 -16.15625 L 114.15625 -91.59375 C 114.15625 -98.101562 111.738281 -103.941406 106.90625 -109.109375 C 102.082031 -114.273438 96.414062 -116.859375 89.90625 -116.859375 C 84.070312 -116.859375 78.851562 -114.554688 74.25 -109.953125 C 69.644531 -105.347656 67.34375 -99.226562 67.34375 -91.59375 L 67.34375 -16.15625 C 67.34375 -12.125 64.703125 -8.421875 59.421875 -5.046875 C 54.148438 -1.679688 48.035156 0 41.078125 0 C 33.671875 0 27.5 -1.625 22.5625 -4.875 C 17.625 -8.132812 15.15625 -11.894531 15.15625 -16.15625 Z M 15.15625 -16.15625 "/></g></g></g><g fill="#1800ad" fill-opacity="1"><g transform="translate(569.19555, 346.687878)"><g><path d="M 6.0625 -41.421875 C 6.0625 -60.054688 12.851562 -73.1875 26.4375 -80.8125 C 40.019531 -88.445312 59.492188 -92.265625 84.859375 -92.265625 L 96.984375 -92.265625 L 96.984375 -95.640625 C 96.984375 -102.367188 94.960938 -108.203125 90.921875 -113.140625 C 86.878906 -118.085938 80.484375 -120.5625 71.734375 -120.5625 C 60.953125 -120.5625 52.082031 -118.707031 45.125 -115 C 38.164062 -111.289062 33.898438 -109.4375 32.328125 -109.4375 C 26.941406 -109.4375 22.675781 -112.070312 19.53125 -117.34375 C 16.382812 -122.625 14.8125 -128.632812 14.8125 -135.375 C 14.8125 -142.78125 21.039062 -149.117188 33.5 -154.390625 C 45.96875 -159.671875 58.9375 -162.3125 72.40625 -162.3125 C 98.21875 -162.3125 117.46875 -156.023438 130.15625 -143.453125 C 142.84375 -130.878906 149.1875 -115.164062 149.1875 -96.3125 L 149.1875 -16.15625 C 149.1875 -11.664062 146.769531 -7.847656 141.9375 -4.703125 C 137.113281 -1.566406 131 0 123.59375 0 C 117.082031 0 111.578125 -1.566406 107.078125 -4.703125 C 102.585938 -7.847656 100.34375 -11.664062 100.34375 -16.15625 L 100.34375 -23.578125 C 84.851562 -5.609375 67.796875 3.375 49.171875 3.375 C 36.816406 3.375 26.539062 -0.441406 18.34375 -8.078125 C 10.15625 -15.710938 6.0625 -26.828125 6.0625 -41.421875 Z M 58.59375 -48.828125 C 58.59375 -39.398438 62.972656 -34.6875 71.734375 -34.6875 C 77.335938 -34.6875 82.945312 -37.828125 88.5625 -44.109375 C 94.175781 -50.398438 96.984375 -57.585938 96.984375 -65.671875 L 96.984375 -67.015625 L 95.640625 -67.015625 C 88.234375 -67.015625 82.113281 -66.675781 77.28125 -66 C 72.457031 -65.332031 68.132812 -63.59375 64.3125 -60.78125 C 60.5 -57.976562 58.59375 -53.992188 58.59375 -48.828125 Z M 58.59375 -48.828125 "/></g></g></g></g></g></svg>